<?xml version="1.0" standalone="no"?>
<!DOCTYPE svg PUBLIC "-//W3C//DTD SVG 20010904//EN"
 "http://www.w3.org/TR/2001/REC-SVG-20010904/DTD/svg10.dtd">
<svg version="1.0" xmlns="http://www.w3.org/2000/svg"
 width="512.000000pt" height="512.000000pt" viewBox="0 0 512.000000 512.000000"
 preserveAspectRatio="xMidYMid meet">
<metadata>
Created by potrace 1.11, written by Peter Selinger 2001-2013
</metadata>
<g transform="translate(0.000000,512.000000) scale(0.100000,-0.100000)"
fill="#000000" stroke="none">
<path d="M2090 5069 c-19 -10 -31 -19 -27 -19 4 0 2 -10 -4 -22 -6 -12 -13
-51 -14 -87 -1 -36 -5 -90 -10 -120 -5 -34 -4 -52 2 -48 11 7 2 -81 -10 -101
-5 -6 -3 -12 2 -12 17 0 13 -27 -4 -34 -15 -5 -21 -36 -7 -36 4 0 8 -32 9 -72
1 -40 7 -84 12 -98 11 -28 9 -105 -3 -133 -6 -12 -3 -22 8 -30 16 -12 27 -57
13 -54 -16 4 -27 -31 -18 -56 6 -16 6 -28 -2 -36 -8 -8 -8 -11 2 -11 7 0 15
10 19 22 l5 22 9 -24 c6 -18 4 -27 -12 -42 -11 -10 -23 -30 -26 -45 -7 -27 5
-57 21 -54 14 4 24 -32 13 -46 -13 -16 -28 -7 -28 17 0 10 -4 21 -8 24 -5 3
-6 -14 -2 -38 7 -44 3 -69 -9 -62 -4 3 -7 -4 -7 -15 0 -10 6 -19 13 -19 18 0
16 -13 -7 -43 -15 -18 -17 -26 -8 -30 10 -3 10 -7 1 -19 -11 -12 -9 -18 6 -32
11 -10 17 -25 14 -37 -3 -10 0 -19 6 -19 6 0 11 -5 11 -11 0 -5 -4 -8 -9 -5
-5 3 -12 -1 -15 -10 -11 -28 -6 -52 11 -58 13 -5 14 -9 4 -19 -9 -9 -14 -9
-20 1 -7 11 -9 11 -13 0 -3 -8 0 -22 8 -33 18 -24 18 -59 1 -52 -18 7 -19 -10
-13 -156 1 -37 -1 -70 -6 -73 -16 -10 -8 -22 12 -17 14 4 20 0 20 -11 0 -9 -7
-16 -15 -16 -14 0 -13 -3 1 -25 11 -17 12 -25 5 -25 -7 0 -9 -4 -6 -10 3 -6
-1 -7 -9 -4 -13 5 -15 0 -12 -26 2 -18 10 -36 17 -41 12 -7 12 -9 0 -9 -10 0
-8 -7 8 -24 12 -13 18 -26 14 -29 -12 -7 -7 -70 7 -96 15 -28 12 -39 -5 -17
-13 17 -15 17 -20 3 -4 -8 -2 -24 4 -34 8 -16 9 -42 1 -63 -1 -3 -2 -8 -1 -12
0 -5 -4 -8 -11 -8 -9 0 -9 -3 0 -12 16 -16 15 -23 -5 -44 -16 -15 -16 -17 -2
-12 14 5 18 -4 23 -52 4 -32 13 -63 20 -70 12 -9 12 -17 -1 -50 -14 -36 -14
-41 1 -65 9 -14 14 -30 11 -35 -3 -6 1 -10 10 -10 8 0 18 -7 22 -16 3 -8 11
-13 18 -10 8 3 16 -1 19 -9 8 -22 -23 -26 -34 -5 -16 31 -37 24 -50 -16 -11
-33 -10 -38 19 -74 32 -40 41 -72 19 -68 -7 2 -19 16 -26 32 -7 16 -15 26 -18
23 -3 -3 -1 -14 5 -25 8 -15 8 -22 -2 -25 -9 -4 -9 -8 -1 -14 18 -13 27 -53
13 -53 -10 0 -10 -3 -1 -12 14 -14 16 -48 3 -48 -13 0 -1 -93 12 -102 8 -5 4
-8 -8 -8 -15 0 -8 -8 25 -30 25 -16 41 -31 35 -31 -68 -9 -85 -4 -58 17 17 13
17 13 -2 14 -16 0 -21 -7 -23 -30 -2 -23 1 -28 13 -24 18 7 20 -7 3 -24 -9 -9
-6 -14 13 -21 l24 -10 -24 0 c-19 -1 -21 -4 -12 -15 9 -10 8 -15 -4 -20 -23
-9 -18 -31 15 -64 35 -35 37 -42 12 -42 -37 0 -31 -13 20 -44 28 -17 53 -39
54 -48 4 -28 -16 -21 -67 22 -37 31 -48 36 -53 24 -3 -8 -10 -12 -16 -9 -18
11 -11 -26 10 -52 22 -28 26 -24 10 8 -6 10 -7 19 -2 19 15 0 40 -25 46 -47 6
-19 4 -21 -17 -17 -22 4 -24 1 -21 -33 1 -20 -1 -44 -6 -53 -8 -15 -4 -16 33
-10 23 3 52 3 65 0 l24 -5 -24 -28 c-22 -25 -28 -27 -52 -17 -17 6 -25 6 -21
0 3 -6 2 -10 -3 -10 -5 0 -4 -15 2 -35 6 -19 16 -35 22 -35 27 0 33 -25 19
-82 -7 -31 -16 -61 -20 -67 -3 -6 1 -11 9 -11 8 0 27 -16 42 -36 22 -29 25
-37 14 -44 -12 -7 -12 -13 0 -37 8 -15 18 -31 22 -34 5 -3 2 -13 -5 -23 -19
-26 -47 -10 -47 27 0 54 -9 24 -15 -51 -5 -57 -3 -73 7 -71 28 3 36 -2 47 -31
8 -24 7 -30 -5 -30 -8 0 -14 -9 -14 -22 0 -16 3 -19 8 -10 7 9 13 8 26 -7 10
-11 15 -25 11 -30 -3 -6 -1 -11 4 -11 6 0 10 18 9 40 -1 21 4 45 10 53 9 11 7
16 -11 24 -29 14 -34 59 -7 73 20 10 20 25 5 180 -1 19 1 40 7 47 6 7 6 18 0
30 -7 12 -7 25 -1 35 21 37 31 156 15 176 -5 8 -12 24 -13 35 -2 12 -8 23 -13
25 -14 5 -13 46 2 77 8 17 8 35 2 58 -14 45 -6 117 12 110 8 -3 14 0 14 6 0 6
-9 11 -20 11 -17 0 -20 6 -18 40 1 21 -4 46 -11 54 -7 8 -11 25 -10 38 2 13 0
29 -4 36 -5 7 -3 14 6 18 12 4 12 11 2 42 -8 21 -10 43 -5 52 5 8 10 60 13
115 5 101 20 155 42 155 14 0 45 -32 45 -47 0 -16 44 -51 60 -48 8 2 24 6 35
10 20 7 20 6 0 -12 -21 -18 -22 -50 -3 -68 8 -7 8 -6 3 4 -6 10 -4 12 4 7 9
-6 9 -11 0 -22 -17 -20 -4 -28 38 -26 l37 3 -20 -22 c-21 -25 -26 -25 47 4 14
6 35 7 45 2 15 -6 7 -11 -36 -22 -73 -19 -111 -64 -52 -62 21 0 23 2 9 8 -17
6 -17 8 5 17 36 17 53 6 31 -18 -17 -19 -17 -20 1 -33 11 -8 15 -19 10 -27 -6
-11 14 5 74 60 19 17 24 10 17 -21 -4 -13 -17 -29 -31 -36 -45 -20 -24 -38 42
-32 16 1 24 -10 38 -49 10 -27 23 -50 28 -50 7 0 6 5 -1 14 -9 11 -7 15 10 19
27 7 49 -1 49 -19 0 -9 11 -14 30 -14 21 0 28 -4 24 -14 -8 -21 -34 -28 -50
-15 -19 16 -17 6 7 -35 22 -37 39 -47 39 -22 0 8 8 13 18 11 9 -2 21 -4 25 -4
5 -1 5 -11 1 -23 -6 -20 -5 -21 10 -9 9 7 25 11 36 8 11 -3 23 0 27 5 3 6 2 9
-3 6 -14 -9 -34 16 -34 44 0 9 -3 9 -12 0 -8 -8 -17 -8 -30 -1 -21 11 -14 33
8 25 11 -4 12 -1 1 17 -6 12 -17 25 -23 29 -33 22 -70 65 -66 77 3 8 0 11 -7
7 -6 -4 -12 -2 -12 3 -1 6 -3 14 -4 19 -1 4 -6 21 -10 39 -7 31 -41 56 -90 65
-13 2 -21 12 -23 29 -2 16 -12 31 -28 37 -13 7 -24 18 -24 26 0 8 -9 18 -20
21 -11 3 -20 13 -20 21 0 12 -18 19 -42 15 -3 0 -12 13 -20 29 -7 17 -21 33
-30 36 -10 3 -18 12 -18 21 0 9 -12 32 -26 50 -23 30 -25 38 -15 60 7 14 15
23 18 19 4 -3 17 4 30 16 13 12 23 18 23 14 0 -4 9 -2 20 4 11 6 18 15 15 21
-4 5 0 9 8 9 8 0 20 6 26 14 7 8 26 18 44 22 28 6 29 8 13 19 -17 13 -17 13 1
17 15 3 12 10 -22 43 -21 22 -38 43 -37 48 3 10 -59 47 -69 41 -5 -2 -13 5
-19 16 -6 11 -18 20 -26 20 -8 0 -12 4 -9 10 3 5 -2 21 -11 35 -9 14 -12 25
-6 25 5 0 28 18 50 41 37 36 40 43 29 62 -7 12 -19 28 -27 35 -13 11 -12 12 6
7 21 -5 46 13 89 66 32 39 58 82 45 74 -8 -5 -11 -3 -8 6 3 8 14 13 24 12 10
-1 13 0 7 3 -20 9 -15 21 10 29 13 4 17 8 10 12 -18 7 -16 21 7 46 12 12 23
32 26 44 4 13 11 23 16 23 6 0 6 6 -1 14 -10 12 -9 14 7 9 21 -5 56 23 46 38
-3 5 -1 8 4 7 13 -4 73 72 66 83 -3 5 0 9 6 9 6 0 10 8 9 18 -3 14 40 91 61
112 3 3 17 21 32 41 20 27 24 39 15 48 -8 8 -8 14 0 22 6 6 8 20 5 31 -4 17
-10 19 -43 14 -41 -7 -79 -32 -79 -53 0 -7 -12 -23 -26 -36 -14 -12 -33 -35
-41 -52 -9 -16 -22 -34 -30 -38 -7 -5 -11 -13 -7 -18 3 -6 -2 -9 -12 -7 -11 2
-18 -2 -17 -9 2 -7 -7 -31 -18 -53 -12 -23 -19 -44 -16 -47 8 -8 -32 -58 -46
-58 -7 0 -11 -12 -9 -31 3 -29 1 -31 -21 -27 -20 4 -25 0 -29 -21 -4 -18 -1
-25 8 -24 7 2 14 -1 16 -7 2 -5 -12 -11 -30 -13 -20 -2 -36 -10 -39 -20 -4 -9
-11 -21 -17 -25 -7 -5 -2 -7 11 -4 22 5 40 -17 23 -28 -6 -4 -10 0 -10 7 0 10
-2 10 -9 -1 -7 -11 -9 -11 -13 0 -3 10 -11 7 -29 -9 -20 -19 -21 -24 -9 -32
16 -10 8 -14 -25 -10 -11 1 -17 -1 -13 -6 4 -4 0 -13 -10 -20 -9 -7 -12 -14
-5 -14 6 0 11 -13 11 -31 -1 -16 -4 -26 -7 -20 -10 15 -35 -5 -28 -22 9 -23
-4 -29 -20 -9 -12 16 -13 15 -11 -7 2 -19 -3 -26 -27 -34 -16 -6 -35 -17 -42
-26 -11 -14 -12 -14 -12 -1 0 8 4 24 8 35 5 11 3 38 -4 61 -7 23 -9 48 -5 54
4 7 3 26 -2 42 -7 20 -7 32 1 42 13 15 12 155 -2 173 -5 8 -4 26 3 47 6 19 13
61 15 93 2 32 5 72 8 88 4 22 -1 35 -16 50 -12 11 -25 21 -29 21 -5 1 -12 2
-18 3 -17 2 -11 18 8 24 22 5 31 40 38 142 2 39 6 89 8 113 3 31 1 42 -10 42
-8 0 -14 5 -14 11 0 6 7 9 15 5 13 -4 13 -2 5 14 -13 24 -13 33 1 25 6 -4 5 3
-3 14 -8 14 -9 24 -3 29 15 11 19 53 4 50 -8 -2 -12 25 -13 100 -1 75 -6 106
-16 112 -11 7 -10 11 3 25 10 9 17 22 18 28 1 7 3 48 5 92 2 44 5 91 7 105 5
33 -2 52 -17 43 -6 -3 -3 3 7 14 12 14 15 23 7 28 -5 3 -8 11 -5 16 4 5 1 9
-5 9 -6 0 -9 4 -5 9 3 6 5 47 5 93 -1 159 0 176 10 204 9 22 8 29 -5 36 -11 7
-13 14 -5 28 12 23 -3 70 -22 69 -7 0 -29 -9 -48 -20z m88 -2359 c-2 -10 6
-26 17 -34 15 -11 17 -17 8 -27 -16 -16 24 -48 54 -43 16 3 23 0 23 -11 0 -13
4 -14 23 -4 22 12 22 12 3 -9 -11 -13 -17 -31 -14 -46 4 -22 3 -24 -19 -15
-13 5 -22 5 -19 0 3 -4 -1 -16 -8 -27 -8 -10 -11 -25 -8 -34 5 -13 3 -13 -11
-2 -9 8 -25 11 -38 7 -26 -9 -39 8 -39 52 0 17 -5 35 -10 38 -6 4 -8 10 -5 14
2 5 7 27 10 50 3 31 1 41 -9 41 -11 0 -11 6 2 35 17 37 45 48 40 15z m6 -320
c9 0 16 -4 16 -10 0 -5 -11 -10 -24 -10 -18 0 -25 7 -29 27 -4 24 -4 26 8 10
7 -9 20 -17 29 -17z m39 -45 c0 -6 -7 -11 -16 -13 -12 -3 -15 1 -11 13 7 17
25 17 27 0z"/>
<path d="M1990 2845 c-18 -22 -8 -33 12 -13 10 9 13 20 9 23 -5 2 -14 -2 -21
-10z"/>
<path d="M2293 2194 c-7 -19 11 -41 21 -25 4 6 3 11 -3 11 -6 0 -8 7 -5 15 4
8 3 15 0 15 -4 0 -9 -7 -13 -16z"/>
<path d="M2490 2190 c-9 -6 -10 -10 -3 -10 6 0 15 5 18 10 8 12 4 12 -15 0z"/>
<path d="M2355 2081 c-3 -5 -1 -12 5 -16 5 -3 10 1 10 9 0 18 -6 21 -15 7z"/>
<path d="M2014 1752 c-9 -5 -8 -11 2 -20 12 -11 14 -9 14 8 0 22 0 23 -16 12z"/>
<path d="M2855 1680 c-12 -13 -22 -17 -29 -11 -7 6 -17 6 -26 1 -13 -8 -12
-11 5 -24 18 -13 22 -12 44 12 14 15 29 26 33 25 4 -2 8 2 8 7 0 16 -15 12
-35 -10z"/>
<path d="M2892 1665 c4 -4 0 -14 -10 -21 -9 -7 -12 -14 -6 -14 6 0 17 6 23 14
9 11 9 16 -1 22 -7 4 -10 4 -6 -1z"/>
<path d="M2915 1540 c-3 -5 -1 -10 4 -10 6 0 11 5 11 10 0 6 -2 10 -4 10 -3 0
-8 -4 -11 -10z"/>
<path d="M3020 1441 c0 -5 7 -12 16 -15 14 -5 15 -4 4 9 -14 17 -20 19 -20 6z"/>
<path d="M2064 1165 c6 -13 14 -21 18 -19 13 8 9 18 -11 31 -17 11 -18 10 -7
-12z"/>
<path d="M2140 799 c0 -5 5 -7 10 -4 6 3 10 8 10 11 0 2 -4 4 -10 4 -5 0 -10
-5 -10 -11z"/>
<path d="M2103 737 c2 -20 6 -39 9 -42 11 -11 58 7 58 23 0 12 -4 12 -21 -4
-21 -19 -22 -19 -15 2 4 14 0 27 -14 39 -21 19 -21 19 -17 -18z"/>
<path d="M2187 710 c-3 -11 -2 -20 3 -20 12 0 21 28 11 35 -5 2 -11 -4 -14
-15z"/>
<path d="M2180 653 c0 -6 -9 -9 -22 -6 -18 4 -20 3 -12 -6 7 -7 21 -11 33 -9
15 2 18 7 11 18 -5 8 -10 10 -10 3z"/>
<path d="M2217 590 c3 -11 9 -20 15 -20 5 0 4 9 -2 20 -6 11 -12 20 -14 20 -2
0 -2 -9 1 -20z"/>
<path d="M2180 590 c0 -5 5 -10 11 -10 5 0 7 5 4 10 -3 6 -8 10 -11 10 -2 0
-4 -4 -4 -10z"/>
<path d="M2130 564 c0 -8 5 -12 10 -9 6 4 8 11 5 16 -9 14 -15 11 -15 -7z"/>
<path d="M2165 480 c-3 -5 -1 -10 4 -10 6 0 11 5 11 10 0 6 -2 10 -4 10 -3 0
-8 -4 -11 -10z"/>
<path d="M2120 465 c0 -8 2 -15 4 -15 2 0 6 7 10 15 3 8 1 15 -4 15 -6 0 -10
-7 -10 -15z"/>
<path d="M2205 350 c3 -5 8 -10 11 -10 2 0 4 5 4 10 0 6 -5 10 -11 10 -5 0 -7
-4 -4 -10z"/>
<path d="M2176 325 c-3 -8 -1 -15 4 -15 6 0 10 7 10 15 0 8 -2 15 -4 15 -2 0
-6 -7 -10 -15z"/>
<path d="M2145 231 c-3 -5 -2 -12 3 -15 5 -3 9 1 9 9 0 17 -3 19 -12 6z"/>
<path d="M2146 191 c-3 -5 1 -11 9 -14 9 -4 12 -1 8 9 -6 16 -10 17 -17 5z"/>
</g>
</svg>
